<svg id="Layer_1" data-name="Layer 1" xmlns="http://www.w3.org/2000/svg" viewBox="0 0 612 247.01"><defs><style>.cls-1{fill:#412d0f;}</style></defs><title>SantaFe_SVG</title><path class="cls-1" d="M444.71,113.07c0,2.54,1.6,6.79-1.62,8.17a1.72,1.72,0,0,1-2.18-.68,7,7,0,0,1-1.16-3,11.42,11.42,0,0,0-1.84-6.1c-1.62-.69-2.53-2.64-4.48-2.64-1.84-.7-3.47.57-5.07,0-5.86-.48-11.28,1-16.79.21-3.35,1.28-3.83,5-4.51,8,.46,1-.45,2.4.46,3.09-.69,1.84,0,4.15-.69,5.88-.22,2.07.23,3.9,0,5.76-.69.67-.22,1.95-.45,2.88,1.6.91,0,2.05,1.14,3.22a1.88,1.88,0,0,0,.91,2.3c4.51-.7,8,1.95,12.66.8,3,.46,5.43-.58,8.19,0,1.38-.8,2.77-1,4.15-2,.69-1.62,2.18-3.21,2.18-5.29a3.45,3.45,0,0,1,1.6-1.5,2.56,2.56,0,0,1,2.08.68c.92,2.2-.22,4.05.23,6.34,0,1.39.69,2.88-.23,4,0,1.16-.46,2.54.46,3.22a1.87,1.87,0,0,0,.24,1.62c-.47,1.26-.24,2.41-.7,3.56.7.93-.46,2.31.7,3a3.11,3.11,0,0,1-2.08,3.1c-1.62.47-2.3-1.14-3.23-2.17-.8-1.62-.21-3.47,0-5.08-.8-1.15,0-2.29-1.71-2.76-.47-.7-.69-1.61-1.62-1.61-4.14-.22-7.93,2.53-11.86.47-4.48.92-8.18-1.62-12.43-.47-.45.22-.68.91-.92,1.61.24,2.65,1.84,4.84,0,7.38a9.26,9.26,0,0,1,.24,3.56,23.86,23.86,0,0,1,.9,3.92,3.74,3.74,0,0,1-.22,3.79c.68,1.16.22,2.31,1.16,3.23.67,2.06-1.16,3.79-.48,6.11.24.44-.46,1.14-.46,1.83,2.08,3.56,6.79,2.65,10.48,3.34,1.73-.46.25-.69,1.87-.23.69.92,1.65,1.84.5,3.45-1.62,1.85.05,1.38-2.37,1.6-1.61,0-3-.9-4.59-.22a22.51,22.51,0,0,0-9.57-.22,9.26,9.26,0,0,0-3.57.22c-3.22-1.14-6.09-.56-9.76-.34a9.53,9.53,0,0,1-2.2.56,4.09,4.09,0,0,1-2.55-.44c-.45-.7-.21-.82-.91-1.26.46-1.39.23-2.09,1.61-2.78,3.35-1,7.48-.57,9.89-3.68.7-1.15-1-2.29.24-3.46a4.57,4.57,0,0,1,.71-2.42c-.71-2.28-.25-4.83-.71-6.91.24-1.48,1.38-3.09.46-4.47.47-.7,0-1.62,0-2.3-.46-2,.69-3.59.69-5.21a1.89,1.89,0,0,0-.69-1.14,12.93,12.93,0,0,0,.25-6.56c.67-2.3-.95-4.72,0-7.24-.25-.7-.25-1.86-.47-3a24.84,24.84,0,0,1,.22-5.87c0-1.15-.92-3,.25-3.92.44-3.11,0-6.34.44-9-1.15-1.84-.91-4.82-3.8-5.29-.21-.69,0-1.38-.68-1.74a23.3,23.3,0,0,1-8.64-.69c-.91-.92-1.37-2.41-.46-3.32,1.6-1.39,3.81-.47,5.65-.68,3.68,0,7-.6,10.7-.36,1.61.11,3.1.23,4.59.23h4.28c5.18-.35,10.35.93,15.19-.7,5.18.94,10.59-1.39,15.19.7,1.85,0,4.73-.23,5.64,1.84-.21.68.69.68.47,1.15C445.63,109.38,445,111,444.71,113.07Z"/><path class="cls-1" d="M500.34,181.68c-.48.22-.24.8-.24,1.26-.93,1.61-3.11,1.61-4.83,2-3.92,0-7.72.68-11.41.68-1.37,1.73-3.09-.23-4.82,0-2.88-1.73-6,.23-9.1-1-3.45,1.27-7-.93-10.71.12-2.18,1.72-5.3.69-7.37.92-.45-1.16-2.42-2.41-1-3.79,1.86-3.24,6.45-.82,9.11-3.24a6,6,0,0,0,1-4,57.93,57.93,0,0,0,0-6.32c-.68-.47,0-2-.68-2.67a16.58,16.58,0,0,0,.45-6.79c-.79-.46.46-1.37-.22-2.18a7.75,7.75,0,0,0,.22-5.08c.7-.92-.22-2.41.46-3.56-.23-1,.71-2.42,0-3.45.71-1.14-1.25-1.84-.46-3.11-1.26-.92.23-3.45-1.72-3.45-3.91,0-5.31-2.08-8.18-2.3a2.23,2.23,0,0,1-.21-2.42,2.66,2.66,0,0,1,2.64-1.61c1.15,0,1.95.35,4,.35.24,0,.35.44.91.44,2.89,0,7.28-.67,8.08-.67,3.21,0,6,1.61,9.2.45,2.19.22,4.38.8,6.23,0a18.33,18.33,0,0,1,3.56-.45c1.73,0,3.33.23,5.06.23,1,0,2.65-.23,3.35-.23,1.61,0,1.37,1.73,2.31,2.64a2.88,2.88,0,0,0-.13.92c0,.93.92,1.62.58,2.79,1,.67.79,2.39.79,3.54a2.49,2.49,0,0,1-1.72,1.26c-1.37,0-3.1-.22-3.57-1.72-.81-.69-2.41-.69-2.41-2.19-2.41-.45-3.47-3.33-5.53-3.33s-7.82.91-10.82.91c-3.57,0-2.06,3.92-2.77,6.11.71.92-.45,2.41,0,3.79-1,1.05.24,2-.8,2.88.58,1,0,2.18.58,3,0,.92-.81,2.07.69,2.43,4.16-.36,7.48,0,11.51-.24a7.57,7.57,0,0,0,3-2.76c.91-.45,1.14-2.19,2.43-2.19.9.24,2.17.58,1.94,1.74.92,1.73-.81,3.89,0,5.29s-.34,2.64-.12,3.91c.25,1.48.93,3.34-.22,4.84s-2.3.45-3.79,0a6,6,0,0,0-1.16-2.42c.22-1.26,0-2.18-1.27-2.42-.69,0-.93-.7-1.74-1.27-3.55,1.27-8.4-2.06-11.27,1.51-.23,1.48.22,2.87,0,4.6,1.37.69-.12,2.62.12,3.8-.46,1.73.1,4.37-.35,6.11.92,1.6-.35,4.25,2.08,4.81,1.94.47,4.14-.79,5.87,0,3.8.47,7.72,0,11.62,0,1.6,0,2.3-2.05,4-2.86.7-1.61,2.19-2.31,3.23-3.69,1.6-.69,3.1-2.88,5.07-2,.69.95,1.38,2.43.69,3.35A14.37,14.37,0,0,0,500.34,181.68Z"/><path class="cls-1" d="M493.25,114.78c-1.55,1.77-4.32,4.54-7.07,4.1-1.66-.78-3.77,0-5.31-1.67a57.71,57.71,0,0,0-8.64-1.77c-.87-2.2-3.42-1.19-5.07-1.19-2.44-.13-3.1,3-5,4-.88-.11-1.78-.33-1.89-1.32.44-2.88,3-5,4.53-7.3a14.53,14.53,0,0,0,2.55-1.77c1.89-.33,3.63-.11,5.31-.56,1.65,1.33,4.52.56,5.64,2.55a37.13,37.13,0,0,0,6.63,1.34c2.31-1.34,5.86,1.43,7.41-1a10.21,10.21,0,0,1,3-2.76c1.31-.12,1.09-.12,2,.67C496.91,110.92,495.36,112.46,493.25,114.78Z"/><path class="cls-1" d="M90.22,116.9c.82-.68.24-1.61.82-2.64.92-1.39,1.37-3,3-3.91,1.38-3.59,5-4.28,7.7-5.87,1.64-.46,3-1.15,4.62-.93,2.88-.92,5.64-1.62,8.29-2.54,2.06.24,3.91.92,5.76.68,2.41.71,4.7.71,6.55,2.55.93.45,2.54,0,3.33,1.14,1.16,1.38,0,2.43,0,3.81.48,2.53,0,5.07.7,7.71,0,1.63-1.49,2.54-2.18,3.69-.46.46-.92.23-1.61,0a4.89,4.89,0,0,1-1.61-3.45c-.48-1.16-.23-2.43-.48-3.58-2.29-.46-3-3-5.18-3.45-.67-1.15-2.27-1.84-2.27-3.35-.71-.69-1.64-.21-2.32-.21-2.18-.48-3.8.44-5.41,1.72-2.3.46-4.72.46-6.55,1.84-1.18.24-2.08,1.15-3.46.93-2.2.91-.69,3.67-2.88,4.94A5.89,5.89,0,0,0,98,119.9c.23,1.61.45,3.11,1.49,4.25-.46,1.85,1.85,1.85,1.85,3.22,3.22.46,3.68,4.73,7.25,5.42.92,2.3,4.13.93,5.3,3.24,2.17-.24,2.41,2.3,5,2.3.24,2.07,3,1.59,3.46,3.2,2.42.47,3.8,2.77,5.89,3.24.45,1.72,2.52,1.95,2.86,3.79.8,1,.34,2.65,1.73,3.33a57.79,57.79,0,0,0,1.6,6.35c-.91,3-1.6,6.1-.68,9.08a6.75,6.75,0,0,1-4.26,5.2c-1.15,1.38-2.54,2.53-3.46,3.91-.93.22-1.15,1.27-1.59,1.95-3.35,2.55-7.29,3.7-11.29,4.6-2.54.24-5.31.68-8,.92-.69-.24-1.83,0-2.77-.24-3,.24-4.25-3-7.24-2.52-1.61-.68-3.46.46-5-1.14-.45-.93-1.82-1.38-1.58-2.87-.94-.93-.94-2.08-1.41-3.23.47-.7,0-1.17-.45-1.62,0-2.07,0-7.23-.23-9.08.23-.91.46,1.6,1.38,1.14a2.23,2.23,0,0,1,2.75,1.59c.36,1.65,0,3.83,1.73,4.52,2.55.22,3,2.75,4.15,4.6,1.84,1.83,4.73,1.15,6.33,3.33,5.18.69,9.78-1.5,14.76-1.95,1.13-1.85,3.55-1.16,4.48-3.47a31.62,31.62,0,0,1,2.06-5.17,4.71,4.71,0,0,0,.91-3.45c-.22-.46,0-.69,0-.93.25-2.65,0-5.41-2.29-5.86-1.72-1.16-2-3.35-3.8-3.81-.46-1.85-2.76-1.85-3-3.68-.92-1.37-2.64-.92-3.8-1.15-1.37-1.84-3.44-1.62-4.37-3.56-2.42-.46-4.25-2.55-6.55-3.23-1.62-2.53-5-1.38-5.88-4-1.38-1.15-2.29-3-3.57-4.6-1.84-2.07-.34-4.28-2.07-6.12a10.9,10.9,0,0,1-.34-2.52C89.43,124.27,90.35,119.44,90.22,116.9Z"/><path class="cls-1" d="M374.17,179.07a9.2,9.2,0,0,0-4.6-.91,5.42,5.42,0,0,1-4.95-2.32,8.2,8.2,0,0,0-1.61-4.47c0-1.74-.81-3.12-1.5-4.63a2.5,2.5,0,0,0,.07-.26,14.69,14.69,0,0,0,3.61-2.79c2-1.94,4.27-3.76,4.69-6.18-.84-.65-1.88.89-3.13,1-1,.63-1.56.18-2.4,1.3-1.25,1.74-3.86.3-6,.54,0-.42,0-.83,0-1.19-1.61-.92-.45-2.66-2-3.57.82-1.48-.91-2.2-.45-3.91-.69-.7-.24-2.09-1.16-2.9.47-1.6-1.95-1.6-1.5-3.55-1.15-.69-.91-2.07-1.61-3.11.25-1.62-1.73-2.41-.92-4-.81-1.74-.58-3.34-1.73-4.84.68-1.15-.69-3.45-.45-4.61-.58-.91-3.45-1-4.6-1-.94,1.59-2.65,4.25-2.88,6.1-2.09,2.18-2.32,4.82-3.11,7.71-1.84,1.95-1.16,5.06-2.65,6.91-.23,2.87-2.3,4.82-2.87,7.25a1.46,1.46,0,0,1,0,2.07c-1.86,2.17-2.55,4.82-3.58,7.49-1.15,1.59-1.39,3.8-1.85,5.75-1.26,2.65-2.17,5.75-5.29,6.67-1.28.46-2.87.24-3.79,1.16-.24.34-4.31.65-8.39,1-2.43-.46-8.93-1.14-10.85-.74-1-.68-2.08-1.49-3-2.18a6.4,6.4,0,0,1,0-3.68c-1-2,.91-3.57.21-5.51.48-1.28.25-3.24.25-4.52-1.06-.69.23-1.13-.25-1.83-1.26-1.49.25-3.23-.1-4.61,1.14-1.49-.23-3.46.45-5.06-.35-1.27.35-2.42-.1-3.91-.46-1.28.45-2.42-.25-3.58.25-1.5.93-3.22-.21-4.6.69-1.25.91-3.23,0-4.38.21-1,1.37-1.27,2.07-1.49a21,21,0,0,0,7.25.9c1.73,0,2.75.13,3.79.13.68.23,2.31.46,2.76,1.16a14.6,14.6,0,0,1,.69,3.56,2.37,2.37,0,0,0,2.19,2,3.17,3.17,0,0,0,1.27-.35c1.39-1.5.92-4.62,2-5.88a7,7,0,0,1,1.25-3.67c-.22-.93.23-2.21,0-2.9a1.84,1.84,0,0,0-1.48-.69c-1.4,0-3.22,1.16-4.27,2a4.25,4.25,0,0,1-3-.23,23.28,23.28,0,0,1-5.53.58A21.47,21.47,0,0,1,302,130c-1.37.8-2.29-.58-3.8-.58-1.71,0-2.06,1-6.1,1-3,0-6.09-.46-9.21-.24a6.28,6.28,0,0,0-2.42-.45c-1.13,0-6.91.2-10.9.3-3.92-.39-11.15-.53-12.59-.53-1.26,0-2.77.11-4.14.23s-2.66.23-3.45.23-1.85-.23-3.23-.23a13.13,13.13,0,0,0-2.42-.68c-1.39,0-2.76,2.06-2.76,3.11,0,.21.68.9.68,1.26,0,1.26,2.19,1.26,3,1.26a4.34,4.34,0,0,1,2.78.8c2.65.93,1,3.33,1.49,5.3a7.12,7.12,0,0,1,.47,4.38,12.68,12.68,0,0,1-.71,5.3,8.27,8.27,0,0,1,.47,4.83c.93.91.46,2.41.46,3.9,1.27,2.2,0,5.08-.69,7.27-.24.21-.34.33-.58.33-.69,0-1.28-1.26-1.85-1.61-2.19-1.95-2.4-4.6-4.36-5.06-.47-2.19-3.34-1.72-3.57-3.92-2-.45-2.65-1.84-4.16-3.57a5.82,5.82,0,0,1-1.72-2.64,2.63,2.63,0,0,0-1.37-2c-.81-1.5-3.23-1.5-3.45-3.45-2.43-.25-1.4-2.88-3.12-3.57.22-1.73-2.41-1.49-2-3.1-1.61-.58-1.61-1.95-2.89-3-.23-1.49-2.64-2.54-2.64-2.75,0-1.86-1.95-1.4-3.1-2.08-2.29.46-4.72-.58-6.68-.58-1.27,0-2.08.68-3.69.68-1.26,0-2.65-.33-3.22-.33-1,0-2.52.57-2.52,1.84,0,2.06,2.64,2.87,3.09,2.87s3.57.69,4.51,1.61c.45,1.5,2.63.93,2.41,2.88,2,.47,1,2.65,1.27,3.92,0,.68-.24.92,0,1.61,0,2.19-1,4.13-.24,6.33,0,.91-.81,2.41,0,3.13-.34,1.48.24,3.2.24,4.58-1.5,2,.23,4.85-.58,7-1.14,3.56-.24,7.14-1.14,10.71-.66,1.77-6.57,2-12.18,2.25-1.92-.26-4-.52-5-.52-1.85,0-3.81-.46-5-2.32a8.12,8.12,0,0,0-1.61-4.47c0-1.74-.81-3.12-1.49-4.63.68-1.83-2.19-1.59-1.62-3.56-1.72-.7-1.5-2.64-1.5-4-1.6-.92-.45-2.66-1.95-3.57.8-1.48-.92-2.2-.46-3.91-.71-.7-.23-2.09-1.16-2.9.45-1.6-1.95-1.6-1.49-3.55-1.14-.69-.93-2.07-1.62-3.11.23-1.62-1.73-2.41-.91-4-.82-1.74-.58-3.34-1.72-4.84.67-1.15-.7-3.45-.48-4.61-.56-.91-3.44-1-4.59-1-.94,1.59-2.65,4.25-2.87,6.1-2.09,2.18-2.32,4.82-3.11,7.71-1.84,1.95-1.17,5.06-2.66,6.91-.24,2.87-2.31,4.82-2.88,7.25a1.43,1.43,0,0,1,0,2.07c-1.83,2.17-2.54,4.82-3.56,7.49-1.16,1.59-1.38,3.8-1.85,5.75-1.26,2.65-2.19,5.75-5.3,6.67-1.26.46-2.86.24-3.79,1.16a3.52,3.52,0,0,0-.81,2,3.8,3.8,0,0,0,.45,1.93,6.53,6.53,0,0,0,2.19.35c3.7,0,4.72-.9,6.23-.9,2.43,0,4.48,1.25,6.9,1.25a5.91,5.91,0,0,0,2.42-.46,1.62,1.62,0,0,0,1-2.17c-1.49-.7-2.64-2-4.14-2.2-1.39,0-1.39-1.62-1.15-2.66,2.19-2.75,1.5-7.47,3.68-10.59.46-1.15,1.57-1.21,2.73-1.21,3.23-.69,7.95.34,11.75-.34.68.46,0,1.21.95,1.67-.69,1.37,1.49,2.21.81,3.58.68.45.68,1.5.68,2.18,1.62.69,1.38,2.87,1.38,4.71a1.81,1.81,0,0,1,.47,1.5c-.23,1.16-1.37,1.16-2.3,1.73-1,1.15-2.42.93-3.69,1.86a5.25,5.25,0,0,0-.46,1.37c0,1,1.61,1.36,2.42,1.36,2.07,0,2-1.15,5.29-1.15,2,0,4.72.47,6.11.47,1.61,0,4.19.27,6.14-.31,1.36.12,3,.2,4.57.2.46,0,1.7-.05,3.15-.17a70.54,70.54,0,0,0,7.33.41c3.33-.48,6.77,0,9.9.22,2.18-.22,5.06,1,7-.46.71-.91,0-2.17.49-3.11-1.17-1.26-3.35-.57-5.08-1.26-.23-.93-2-1.49-1.15-2.53,0-2.42.46-4.5,0-6.69.69-.69-.22-1.84.46-2.64.69-2.65-.46-5.29.46-7.95-.92-1.71.9-3.56-.69-5.3,0-2.64-.8-5.29.23-7.94.69-.8,1.36.45,1.71.69,1.4.23,1.63,2.2,2.89,2.64a11.44,11.44,0,0,1,3.57,4.16c2.43.69,1.73,3.33,4.13,3.8.25,1.73,2.9,1.5,2.67,3.45,1.73.69,1.95,3.11,3.91,3.11.45,1.73,2.42,1.95,2.42,3.56,2.43.36,1.27,3.35,3.79,3.47.25,1.71,2.43,1.95,2.65,3.57,1.74.8,1.05,3,3,5.17-.34,2.41,2.42,1.63,3.12,3.56a9.46,9.46,0,0,0,3.34.7c2,0,2.64-1.14,2.64-2.87,0-1.39-.35-2.89-.23-4-.7-2.19.81-5.19,0-7.26a47.19,47.19,0,0,0,.81-4.83,29.52,29.52,0,0,0,0-7c.7-1.26-.58-2.41.23-3.68-1-.93,0-2.42-1-3.34,1.74-3.11-.22-7.25.81-10.37,1.15-1.49,1.15-3.11,2.41-4.37.25-1.05,1-1.05,2-1.05.66,0,2.94,0,5.4-.17v0a.71.71,0,0,1,.19-.06l1.69-.13c3.63-.09,11.15.31,12.06.31,2.31,0,4.84.59,7.15.13.47.23,1.15.46,1.15,1.16-.47,1.26.46,2.64-.24,3.92.7.91-.91,1.61.24,2.64,0,1.72.46,2.63,0,4,.68,1-.24,2,.46,2.77-.23,1.39.22,2.87-.46,4,1,1,0,2.2.23,3.46-.7.93.23,2.42-.23,3.57a2.17,2.17,0,0,1,.46,2c.46,1.49-.46,2.64-.23,4.14-.7,1.14-.47,3.46-.23,4.83-.47,1.73-1.49,3.22-.91,5.07a2.79,2.79,0,0,1-1.51,1.5c-1.27,1.72-3.1,1.49-4.84,2.17a3.42,3.42,0,0,0-2.18,3.11,3.78,3.78,0,0,0,3.12,1.16,42,42,0,0,1,5.41-.7c1.83-.11,3.68-.22,5.52-.46,3.4.65,19.4.58,23.92,0l4.3,0c3.68,0,4.73-.9,6.21-.9,2.42,0,4.48,1.25,6.91,1.25a5.94,5.94,0,0,0,2.42-.46,1.62,1.62,0,0,0,1-2.17c-1.51-.7-2.65-2-4.15-2.2-1.37,0-1.37-1.62-1.15-2.66,1.84-2.31,1.66-6,2.84-8.94,1.82-1.13,4.65-3.76,6.7-3.68,1.58,0,4-.83,4.79,1,1.46.19,2.89.39,4.3.63a1,1,0,0,0,.47.49c-.69,1.37,1.5,2.21.82,3.58.68.45.68,1.5.68,2.18,1.61.69,1.38,2.87,1.38,4.71a1.79,1.79,0,0,1,.48,1.5c-.25,1.16-1.4,1.16-2.33,1.73-1,1.15-2.41.93-3.67,1.86a4.6,4.6,0,0,0-.46,1.37c0,1,1.61,1.36,2.41,1.36,2.08,0,2-1.15,5.3-1.15,2,0,4.71.47,6.1.47a24.35,24.35,0,0,0,6.11-.79c1.37.11,3,.68,4.6.68,1.38,0,3.44-.47,3.44-1.85A3.8,3.8,0,0,0,374.17,179.07ZM169.44,157.66c-.22.23.05,1.39-.18,1.73-3.45,0-7.81.47-11.15-.34a16.68,16.68,0,0,1,2-7.37c-.23-.7.69-.93.69-1.62.23-2.41,1.61-4.61,2.42-6.9.23-.24.45-.81.81-.81.12,0,.34.11.34.22.47,1,.24,2.2,1.5,2.66a2.37,2.37,0,0,0,.7,1.73c-.7,1.6.91,2.63.46,4.25.69.24.45,1.26.69,1.95A6,6,0,0,1,169.44,157.66Zm176.76.64c-1.55.37-3.7.69-5.46,1-.63.56-1.13.53-2,1a8.33,8.33,0,0,1-2.2,1.81,4.5,4.5,0,0,1-.51-.08,33.4,33.4,0,0,1,3.22-10.29c-.24-.7.71-.93.71-1.62.21-2.41,1.58-4.61,2.4-6.9.23-.24.46-.81.82-.81.11,0,.34.11.34.22.46,1,.22,2.2,1.5,2.66a2.38,2.38,0,0,0,.67,1.73c-.67,1.6.94,2.63.47,4.25.69.24.47,1.26.69,1.95A13,13,0,0,1,349,158.7,4.35,4.35,0,0,1,346.2,158.3Z"/><path class="cls-1" d="M179.62,233.92c-1-.21-.59-1.35-1.51-1.69.22-.8-.86-.8-.64-1.61-1.09-.33-.75-1.14-1.3-1.47-.34-1,.92-.8,1.35-1.24.32-.91,1.13-1.25,1.93-1.95.87-1.45.66-3.18,1-4.85a1.22,1.22,0,0,1-.33-1c-1.14-.31-.54-1.57-1.57-1.72.22-1-1-.76-1.36-1.25-.57-1-2-.54-3-.87a2.19,2.19,0,0,0-2.49-.58c-1.46.58-2.86-.55-4.44,0a16.65,16.65,0,0,1-2.21.1,27.54,27.54,0,0,1-3.69-.22,1.1,1.1,0,0,0-1,1c.16,1.08,1.18,1.08,2.16,1.08.6,0,1.52,0,1.52.71.59.26.69.8.69,1.52.23.2-.22.64.11.9a1.2,1.2,0,0,1-.21.87c-.33,1.25.43,2.38,0,3.88a14.12,14.12,0,0,0-.12,2.29c-.21.65,0,1.58-.21,2.28.33.53-.26,1.23.21,1.77a21.85,21.85,0,0,0,0,3.72,1.37,1.37,0,0,0-.05,1c-.42.71.38,1.25,0,2l-.47.36a10.8,10.8,0,0,1-2.23.28,1,1,0,0,0-.86.81,1.2,1.2,0,0,0,.64.91h7.15c1.13-.21,2.81.44,3.62-.71.32-.41.06-.62-.05-.92-.72-.58-2-.52-2.72-.73-.42-.12-.32-.51-.32-.82-.69-.44-.1-1.25-.37-1.84.1-2-.11-3.46.37-5,.44-.55,1.15-.33,1.79-.43.37,0,.49.43.7.69,1.24,0,1,1.56,2.17,1.68-.11.58.8,1.35,1.18,1.57,0,.92,1.26,1.57,1.26,2.48.32.23.27.56.28.87,1-1.2,2.18-2.16,3.07-3.42C179.68,234.23,179.62,234.07,179.62,233.92Zm-4.38-9.19c-.33.43-.8.43-.8,1-.76.43-.76,1.45-1.68,1.66-.32.82-1.46.82-2.27.93-.69-.11-1.19.11-1.46-.44a6.19,6.19,0,0,1-.23-2c.5-.71.07-1.74.07-2.39,0-1.84.1-3.89.1-5.78l.17-.11c1.19.33,3-.11,4.17,1,1.13-.26.48,1.15,1.39,1.36a1.53,1.53,0,0,0,.44,1.14c.21.92-.33,1.67-.1,2.7A.91.91,0,0,1,175.24,224.73Z"/><path class="cls-1" d="M245.35,222.07a6.14,6.14,0,0,1,.84-2.65c.13-1.17,1.31-1.78,2-2.59.49-.1.7-.49,1.08-.71,1.56-.15,2.81-.74,4.49-.74h.58c.56.27,1.31,0,1.63.59.7.22,1.8-.11,2.49.37.49.93.16,1.79.27,2.72A5.62,5.62,0,0,1,259,221c-.22.21,0,.53-.22.64a1.21,1.21,0,0,1-1.53.39c-.25-.65-1.08-.92-.79-1.8-.6-.43-.49-1.24-1.35-1.3-.6-1.07-1.9-.8-2.77-1.29a3.5,3.5,0,0,1-1.19.28c-.2,0-1.25.26-1.34.75-1,.21-.72,1.35-1.29,1.9a4.19,4.19,0,0,0,1,2.47c.11.77,1.57.66,1.57,1.3,1.19.39,1.73,1.57,2.71,1.91.15.85,1,.25,1.45.53,1.07,0,1.07,1.41,2.12,1.52.27.75,1.45,1,1.45,1.83,1,.39,1.41,3.14,1.41,4a6.83,6.83,0,0,1-1,3.47c-.32,1-1.88,1.15-2.12,2.32-.59.5-1.17.71-1.88,1.32a5.42,5.42,0,0,1-1.57.22,10.33,10.33,0,0,1-1.78-.18,12.91,12.91,0,0,0-1.4-.1,4.86,4.86,0,0,0-1.52.16c-1.19.21-1.74-1.08-2.92-.81a2.25,2.25,0,0,1-1.79-.49c-.54-.81-.22-1.89-.26-2.36a4.41,4.41,0,0,1-.17-2.24,5.17,5.17,0,0,1,.33-1.73c.22-.32.59,0,1-.1.89.43.81,1.3,1.52,2a8.86,8.86,0,0,1,1.09,2.07c.58,1.07,3.18,1.33,4.05,1.33a4.75,4.75,0,0,0,3.29-.91,19.19,19.19,0,0,0,1.58-2,1.32,1.32,0,0,0,.05-.44c0-.87-.81-1.14-.65-2.05a3.08,3.08,0,0,0-.64-1.1c-.12,0-.54-.32-.54-.43a6.34,6.34,0,0,1-3.25-1.67c-.54-.27-1.2-.27-1.46-.92a6.92,6.92,0,0,1-2.49-1.67c0-.81-1.29-.81-1.19-1.67a6.61,6.61,0,0,1-.76-2.44,2.44,2.44,0,0,0-.31-1.42Z"/><path class="cls-1" d="M299.37,218.45c-.49.61-.26,2.06-.93,2.76a1.58,1.58,0,0,1-.59.17,1.09,1.09,0,0,1-1-.93,7.59,7.59,0,0,0-.33-1.67c-.22-.33-1-.43-1.29-.53-.49,0-1-.07-1.8-.07a9.74,9.74,0,0,1-3.4-.43c-.32.11-.87.21-1,.7a2,2,0,0,1,0,2.06c.54.65.23,1.46.11,2.16.33.52-.11,1.08.12,1.67s-.12,1.26.05,1.85c-.33.73.33,1.66-.22,2.38.17.64-.54,1.45.05,2.16.22.33-.37.54.12.87a6.87,6.87,0,0,1-.12,2.11c.33.91-.59,1.67-.11,2.58a3.21,3.21,0,0,0,0,1.74c.44.31.92.7,1.41,1a4.11,4.11,0,0,1,2.43.44c.22.42,0,.66-.11,1.08-.11.1-.2.37-.48.49a13.8,13.8,0,0,1-5.2-.12c-.87.12-1.71.17-2.59.22a17.32,17.32,0,0,0-2.53.34,1.8,1.8,0,0,1-1.48-.56,1.59,1.59,0,0,1,1-1.45c.81-.33,1.67-.22,2.28-1a1.31,1.31,0,0,0,.69-.7c-.28-.87.23-1.57.44-2.38a4.17,4.17,0,0,1,.1-2.28c-.1-.7.34-1.24.12-1.94a1,1,0,0,0-.22-.92c.22-.54-.21-1.25.1-1.67-.1-.6.4-1.15-.1-1.65.32-.52.1-1.23.22-1.87-.33-.38.1-.81-.22-1.3.22-.66,0-1.08,0-1.87-.55-.5.22-.83-.11-1.27.33-.59-.1-1.24.11-1.83,0-.33-.32-.43-.55-.53a18.89,18.89,0,0,1-3.36-.07,8.44,8.44,0,0,0-4.26,2.22c-.22,0-.1.32-.22.43a1.7,1.7,0,0,1-1.34.91,1.46,1.46,0,0,1-.61-.1c-.42-.11-.32-.7-.59-1,.49-1.13.91-2.26,1.3-3.42.65-.36-.15-.9.54-1.22-.16-.54.38-.81.82-.81s.91.37,1.34.42c1,1,2.48.39,3.85.39a2.68,2.68,0,0,1,1.13.22c1.46-.13,2.92.1,4.33.1,1.88,0,2.05-.49,2.87-.49s1.13.64,1.76.26a9.72,9.72,0,0,0,1.31.06,11.67,11.67,0,0,0,2.59-.26,2.25,2.25,0,0,0,1.42.11,3.93,3.93,0,0,1,2-.93.82.82,0,0,1,.69.34c.11.32-.09.91,0,1.35A3.34,3.34,0,0,0,299.37,218.45Z"/><path class="cls-1" d="M322.58,228.35l-.19,3.88a.7.7,0,0,1,.34.54c0,.44-.38,1-.43,1.36a1.3,1.3,0,0,1,.21.92c0,.92.16.6.16.92,0,.48-.32,1-.32,1.56a.84.84,0,0,0,.32.72c.54.33,1.15-.22,1.47.21.33,0,.64.06.92.06.91,0,1.72,0,2.17.75a1.69,1.69,0,0,1-.71,1.57c-.44,0-.81,0-1.26,0s-1.28,0-2.1.09-1.67.1-2.44.1a12.74,12.74,0,0,1-2.38-.15,8.11,8.11,0,0,1-1.94.27,4.21,4.21,0,0,1-1.88-.38,1.82,1.82,0,0,1,.21-1.68,1.93,1.93,0,0,1,1.14-.26c.26,0,.53,0,.81,0,.75,0,1.56-.31,1.56-1.07,0-.23-.11-.48-.11-.92a24.16,24.16,0,0,0,.21-2.83,3.17,3.17,0,0,0,.11-1c0-.81-.21-1.56-.21-2.32a2.21,2.21,0,0,1,.33-1.19c-.16-.55.16-.91.16-1.24a.59.59,0,0,0-.28-.54c.21-.7-.32-1.13-.21-1.74-.48-.32,0-.91-.22-1.23v-.39c0-.64.32-1.15.32-2,0-.46.18-.86.18-1.29a1,1,0,0,0-.28-.76c.21-.7-.54-1.46-.26-2.11-.48-.59-.94-.37-1.69-.43-.42-.21-1.12-.05-1.56-.56a1.16,1.16,0,0,1,.93-1.44c1.38-.05,2.75.11,4.49,0,1.5-.05,3.83.27,5.29-.05.53-.12.64.53,1,.74.12.44-.1.66-.1,1-.65.87-2.28.54-3.3.65-.42.12-.21.59-.33.93.12.53-.28,1.13,0,1.55a1.85,1.85,0,0,0-.21.8c0,.62.16,1.26.12,2.17a3.36,3.36,0,0,1,.09.6,3.71,3.71,0,0,1-.37,1.46c.49.55-.22.93,0,1.46,0,.48-.1.81.28,1.14Z"/><path class="cls-1" d="M366.21,237.76c-1,.49-2.38.82-3,2.06s-1.79.91-2.83.81c-1.24,0-1.95,1-3.19.75-1.24,0-2.48,0-3.73-.1-1-.95-2.65-.71-3.78-1.46-.54-.37-1.68-.13-1.57-1.14-.59-.22-1.14-.43-1.14-1.15-.92-.09-.81-1.13-1.45-1.44,0-.83-1.14-.93-.92-1.73-.8-.35-.11-1.26-.93-1.47a2.81,2.81,0,0,0,.13-1,4.75,4.75,0,0,0-.13-.91c-.44-.22,0-.43-.1-.66a.79.79,0,0,1-.05-.37c0-.34.15-.6.15-.87a.5.5,0,0,0-.22-.48c.35-.56.17-1.26.56-1.79,0-.59.48-1,.37-1.68-.11-.92.8-1.66,1.23-2.6-.32-1.12,1.36-1.39,1.14-2.59.43-.54,1-1.24,1.68-1.24,1.25-1.34,2.76-1.9,4.22-2.81a12.36,12.36,0,0,0,4.22-.6c.87-.1,1.68.6,2.49,0,.43-.1.65.39,1,.49.54.27,1.35-.1,1.8.44.7.2,1.39.69,2.16.91a1.71,1.71,0,0,0,1,1.15c0,.81,1.22.9.7,1.82.22.33-.1.65-.1,1a11,11,0,0,0,.21,2.59c-.21.43,0,1.24-.81,1.46a1.8,1.8,0,0,1-1.45-.11c-.12-.44-1.37-.81-.7-1.47,0-.1,0-.2-.22-.39.8-.74-.73-1.12-.34-1.88-.47-.2-.39-.7-.6-1s-.92-.22-.8-.81c-.66-.42-1.56-.55-1.89-1.23a1,1,0,0,0-.75-.5,25.72,25.72,0,0,0-4,.11,6.55,6.55,0,0,0-2.75,1.29c-.92.22-1,.92-1.78,1-.27.53-.6,1-.92,1.55-.32.33.32.71,0,1.15-.32.59-.82,1.13-.6,1.84a3.68,3.68,0,0,0-.22,2.15c-.21.33-.11.66-.11,1a.76.76,0,0,1-.21.66,1.34,1.34,0,0,1,.11.48,1.31,1.31,0,0,1-.11.53c.21.44,0,1.26.66,1.58,0,.21-.07.44-.07.66a2.61,2.61,0,0,0,.43,1.49c-.48.82.66,1.05.44,1.74.92.21.6,1.24,1.35,1.56-.21,1,.92.92,1.42,1.64.52.54,1.56.21,2,.86.81.11,1.78.27,2.65.34a3.79,3.79,0,0,0,2.61-.87c1.44-.12,2.25-1.37,3.4-2.18.53-.58.33-1.35,1-1.84-.12-.64.54-1.13.43-1.67.16-.27.48-.66.77-.66a.65.65,0,0,1,.35.06c.22.6,1,1.14.71,2,.41.32-.11.92.33,1.24a8.32,8.32,0,0,0,0,1.23A1.29,1.29,0,0,1,366.21,237.76Z"/><path class="cls-1" d="M383.24,226.92c0-.67.23-1.23.23-1.82.21-.43.21-1.13.53-1.57.12-.28.39-.37.27-.59.33-.66,1.09-.82,1.35-1.46.13-.21.44-.21.55-.59-.11-.32.33-.66.48-1A6.83,6.83,0,0,0,388,218.5a6.42,6.42,0,0,1,3-1.77c1-1,2.63-.71,3.77-1.63a6.59,6.59,0,0,0,1.25.12,3.89,3.89,0,0,0,1.35-.12c1.45.38,2.92.16,4.44.38.63.54,1.67.54,2,1.57.54.59,1.36.32,1.78.91,1.73,0,2.17,1.95,3,3,0,.54.65.87.43,1.56.34.21,0,.69.22,1,0,1.24.69,2.07.81,3.3.44.54.11,1.14.44,1.68-.21.37,0,.7,0,.93a.3.3,0,0,1-.16.31c0,.7-.21,1.25-.21,1.85-.23.43-.23,1.13-.54,1.55-.11.28-.38.38-.26.6-.34.65-1.08.81-1.36,1.46-.1.22-.42.22-.55.61.13.31-.33.63-.48,1a7.34,7.34,0,0,0-1.36,1.41,6.52,6.52,0,0,1-3,1.77c-1,1-2.66.71-3.79,1.63a4.5,4.5,0,0,0-.92-.21,4.28,4.28,0,0,0-.8-.06c-.39,0-1.14.11-1.78.06a25.87,25.87,0,0,0-3.74-.65,1.89,1.89,0,0,1-1.84-1.08c-.53-.6-1.35-.34-1.77-.92-1.75,0-2.17-1.95-3-3,0-.55-.65-.87-.44-1.59-.33-.2,0-.7-.21-1,0-1.23-.71-2.05-.82-3.29-.43-.54-.1-1.13-.43-1.67.22-.34-.05-.65-.05-1A.53.53,0,0,1,383.24,226.92Zm12.13-9.48c-.83.42-1.35,0-1.89.64a4.16,4.16,0,0,0-1.63,1.34,11,11,0,0,1-1.56,1.24c.09.72-.72.5-.72,1.05-.91.57-.42,1.54-1,2.47-.21.11.12.59-.21.82a4.6,4.6,0,0,0-.06,1,2.9,2.9,0,0,1-.15,1.31,9.81,9.81,0,0,1-.28,2.12.52.52,0,0,0,.06.26c.32.32.12.92.43,1.35a20.12,20.12,0,0,1,.93,2.65c.31.43.11,1.24.63,1.68a4.51,4.51,0,0,0,1.52,2.16c.76,1.56,2.69.92,4,1.45a8.52,8.52,0,0,0,1.19.17,6.47,6.47,0,0,0,1.2-.17c.71-.42,1.83.11,2.27-.69.48-.44,1.3-.53,1.67-1.19a13.23,13.23,0,0,0,1.67-1c-.1-.7.72-.49.72-1,.92-.59.43-1.56,1-2.49.21-.1-.11-.58.21-.8a7.41,7.41,0,0,0,.05-1.13,2.4,2.4,0,0,1,.16-1.13c-.11-.93.33-1.47.22-2.4-.33-.32-.12-.9-.43-1.35a22.29,22.29,0,0,1-.93-2.65c-.31-.42-.09-1.23-.64-1.66a4.42,4.42,0,0,0-1.51-2.17c-.75-1.57-2.71-.91-4-1.35-.76.22-1.73-.42-2.74-.42Z"/><path class="cls-1" d="M428.36,222.07a6,6,0,0,1,.85-2.65c.12-1.17,1.31-1.78,2-2.59.48-.1.69-.49,1.08-.71,1.56-.15,2.8-.74,4.48-.74h.6c.53.27,1.3,0,1.62.59.7.22,1.78-.11,2.48.37.49.93.16,1.79.3,2.72A6.47,6.47,0,0,1,442,221c-.19.21,0,.53-.19.64a1.22,1.22,0,0,1-1.53.39c-.27-.65-1.1-.92-.83-1.8-.6-.43-.47-1.24-1.34-1.3-.59-1.07-1.89-.8-2.76-1.29a3.55,3.55,0,0,1-1.18.28c-.22,0-1.26.26-1.37.75-1,.21-.7,1.35-1.29,1.9a4.21,4.21,0,0,0,1,2.47c.11.77,1.57.66,1.57,1.3,1.19.39,1.72,1.57,2.7,1.91.17.85,1,.25,1.45.53,1.08,0,1.08,1.41,2.11,1.52.28.75,1.49,1,1.49,1.83,1,.39,1.39,3.14,1.39,4a7,7,0,0,1-1,3.47c-.34,1-1.91,1.15-2.13,2.32-.58.5-1.18.71-1.89,1.32a5.25,5.25,0,0,1-1.56.22,10.55,10.55,0,0,1-1.8-.18,12.34,12.34,0,0,0-1.39-.1,4.86,4.86,0,0,0-1.52.16c-1.19.21-1.73-1.08-2.91-.81a2.23,2.23,0,0,1-1.79-.49c-.55-.81-.21-1.89-.27-2.36a4.41,4.41,0,0,1-.17-2.24,5.46,5.46,0,0,1,.34-1.73c.21-.32.59,0,1-.1.86.43.79,1.3,1.5,2a8.22,8.22,0,0,1,1.08,2.07c.61,1.07,3.2,1.33,4.07,1.33a4.79,4.79,0,0,0,3.29-.91,22.27,22.27,0,0,0,1.59-2,1.64,1.64,0,0,0,0-.44c0-.87-.83-1.14-.65-2.05a3.26,3.26,0,0,0-.65-1.1c-.1,0-.54-.32-.54-.43a6.42,6.42,0,0,1-3.25-1.67c-.53-.27-1.18-.27-1.45-.92a7,7,0,0,1-2.49-1.67c0-.81-1.3-.81-1.18-1.67a6.26,6.26,0,0,1-.76-2.44,2.32,2.32,0,0,0-.33-1.42Z"/><path class="cls-1" d="M190.59,240.4c-2-.09-4-.09-5.57-.93a9.87,9.87,0,0,0-2.49-1.61c-.88-.28-1.17-1.25-1.43-1.86-.69-.36-.49-1.29-1.29-1.55.2-.68-.94-.6-.76-1.42a.85.85,0,0,1-.49-.72c-1.46.26-2.91.48-4.37.7a2.06,2.06,0,0,1,.35.82c.33.63.51,1.38,1.16,1.73a5,5,0,0,0,1.54,2.07c1.13.41,1.52,1.53,2.71,1.85.48.67,1.37.67,1.93.92a10.51,10.51,0,0,0,1.1.92c2.09.51,4.34,1.42,6.39.93.53-.35,1.47-.35,1.63-1.08A.48.48,0,0,0,190.59,240.4Z"/><path class="cls-1" d="M208.37,219.44a5.84,5.84,0,0,1,.07,1.73c.42.65-.12,1.53-.22,2.23a2.51,2.51,0,0,1,.05,2.06c.27.54-.42,1.14.17,1.68-.49.43.1,1-.17,1.58.38.6-.53,1,.17,1.41a4.62,4.62,0,0,0,0,2.16c-.49.78.47,1.37.15,2.18a11.23,11.23,0,0,1,1,2.14c.86.19.86,1.55,1.89,1.67a3.85,3.85,0,0,0,2.44.91,11.11,11.11,0,0,0,4.89-.28c.65-.26,1-.81,1.74-1a4,4,0,0,0,1.08-1.84c.22-.7.77-1.25.65-2,.61-.46.38-1.26.82-1.85-.32-.22,0-.44-.11-.77-.1-.59.48-1,.05-1.62a6.06,6.06,0,0,1,.06-2.24c0-1.13.1-2.27.1-3.4-.1-.39.23-.87-.27-1.2.77-.7-.27-1.19.33-1.79-.27-.43.44-1.15-.27-1.58a2.14,2.14,0,0,0-1.46-2.06,4.76,4.76,0,0,1-1,.07c-.46,0-2.24,0-2.24-.67a6.32,6.32,0,0,0,.1-.7c0-.12.33-.12.55-.28a1.38,1.38,0,0,1,.65-.15,5.68,5.68,0,0,1,.94.05c.58,0,1.12-.11,1.73-.11s1.35-.05,1.57.11.86-.22,1.39,0c.73,0,1.31,0,2.3,0,0-.16,0-.27.31-.27s.44-.05.71-.05a1,1,0,0,1,.93.58c0,.23.22.67-.33.77s-1,.72-1.42.72c-.27,0-.69.32-1.07.37a1.46,1.46,0,0,0-.76.27c.11.42-.71.53-.38,1-.43.32.1.7-.23,1.14a2.87,2.87,0,0,0,.23,1.68c-.33.6.22,1.14-.11,1.74.33.33-.44,1.19.16,1.52-.6.7.44,1.08.11,1.69.33.42-.39,1,.11,1.47,0,.64-.27,1.19-.05,1.67a3,3,0,0,0-.22,2.28c-.49.43.1,1.12-.49,1.58.38.92-.38,1.68-.38,2.5-.28.49-.49,1-.7,1.45-1.26.16-2.39,1.85-3.41,2.2-1.05,1-2.2.57-3.32,1.23-1.47.36-3.16-.11-4.79.1a15.84,15.84,0,0,1-5.36-2c-.61-.74-1.48-1.06-1.48-1.78-.92-.21-.32-1.24-1.14-1.47A2.38,2.38,0,0,0,204,235c.43-.69-.59-1,.12-1.62-.4-.55.43-1,0-1.57.31-.72-.71-1-.23-1.85-.38-.11-.17-.32.11-.53-.38-.72.12-1.26-.11-1.87a7.82,7.82,0,0,1,.23-2.6,13.79,13.79,0,0,1,.21-2.22c-.33-.44.05-1-.06-1.46a2.11,2.11,0,0,0-.32-1.59c.32-.7-.93-.59-.64-1.3-.51-.21-.94-.76-1.1-.76a3.88,3.88,0,0,1-2.23-.87c-.7-.59-.06-.65.23-1.13.31,0,1-.21,1.47-.21.31,0,.63,0,.74.32.78.05,1.64.05,2.51.05a22.14,22.14,0,0,1,3.46.17c1-.12,2.19.42,3.1-.12a12.37,12.37,0,0,1,1.47-.21c.43,0,1,.37,1,.8a2.71,2.71,0,0,1-.16.89c-.06.26-.76.26-.87.42a.5.5,0,0,1-.26.06c-.23,0-.39-.17-.54-.17s-.45.11-.66.11c-1.1,0-1.69.55-2.34.55,0,.48-.59.48-.71.81Z"/><path class="cls-1" d="M219.81,207c-.63.16-.73.76-1.4.85-.47.28-1.19.44-1.55,1-.59.44-.75.87-1.58.91-1.15,0-1.35,1.44-2.45,1.45-.12.64-1,.52-1.22.92a.93.93,0,0,1-.54.09c-.13,0-.28-.16-.48-.28a.66.66,0,0,1-.14-.59c.16-1.2,1.53-1.22,2.09-2.06.14-.35.28-.68.65-.8.31-.73,1.25-.73,1.43-1.41,0-.6.89-.67,1.13-1.07.28-.14.12-.33.26-.68.62-.29,1.1-.27,1.5-.65s.36-.32.79-.34c.14,0,.35-.8.49-.79a2.85,2.85,0,0,1,1.24.67c0,.29.28.48.35.65a2,2,0,0,1,0,.85A2.32,2.32,0,0,1,219.81,207Z"/><path class="cls-1" d="M410.29,71.13c0-.28,0-.5,0-.64a2.14,2.14,0,0,0,.05-.45,2.43,2.43,0,0,0-.39-1.31,3.78,3.78,0,0,0-.13-.42s0,0,0,0a.49.49,0,0,0,0-.11,2.38,2.38,0,0,0-.06-.34s0-.1-.06-.17,0-.31,0-.44,0-.22,0-.35,0-.13,0-.28a3,3,0,0,0-.13-.43c-.1,0-.08-.44-.49-.85,0-.1,0-.19,0-.27a1,1,0,0,0,0-.23,1.13,1.13,0,0,0,0-.22,2.36,2.36,0,0,0-.1-.39c-.07,0-.07-.09-.1-.22s0-.34,0-.51a1.11,1.11,0,0,0-.06-.39.76.76,0,0,0-.05-.21,1.51,1.51,0,0,0-.08-.37c-.19,0,.09-.63-.88-1.17v0a2.44,2.44,0,0,1-.21-.36c0-.16,0-.3,0-.44s0-.21-.07-.4a2.27,2.27,0,0,0-.13-.46c-.05,0-.09-.16-.16-.31s0-.47,0-.68,0-.23-.08-.41a2.8,2.8,0,0,0-.15-.51c-.07,0-.12-.24-.27-.47v0a2.21,2.21,0,0,0-.08-.34,2,2,0,0,0-.23-.54,2.47,2.47,0,0,0-.2-.31l0,0a2.82,2.82,0,0,0-.34-.54,1.31,1.31,0,0,0-.05-.22c-.12,0-.07-.37-.44-.73v-.4a1.44,1.44,0,0,0-.05-.24,1.51,1.51,0,0,0-.11-.43c-.13,0-.08-.57-.74-1a1.63,1.63,0,0,0-.35-.6v0a3.14,3.14,0,0,0-.1-.38,2.4,2.4,0,0,0-.22-.47v0s0-.11,0-.21a1.71,1.71,0,0,0-.08-.32,1.31,1.31,0,0,0-.21-.5,2,2,0,0,0-.4-.6,1.51,1.51,0,0,0-.68-.94,1.46,1.46,0,0,0-.62-.75.93.93,0,0,1-.12-.18,2.34,2.34,0,0,0-.17-.41,2.22,2.22,0,0,0-.91-1,1.55,1.55,0,0,0-.26-.39v0a1.26,1.26,0,0,0,0-.33,3.73,3.73,0,0,0-.19-.5,2.3,2.3,0,0,0-.86-1,1.1,1.1,0,0,0-.12-.25,2.45,2.45,0,0,0-.85-.85c-.13-.35-.5-.81-1.69-1.14a.35.35,0,0,1-.06-.17,2.44,2.44,0,0,0-.62-1.29,2.43,2.43,0,0,0-1.46-1.74l0-.12a2.07,2.07,0,0,0-.16-.49,2.17,2.17,0,0,0-1.33-1.18,2.39,2.39,0,0,0-1-.91l-.16-.15a2.41,2.41,0,0,0-1.87-1.88,2.38,2.38,0,0,0-1.68-1.89,2.13,2.13,0,0,0-1.29-.67.94.94,0,0,0-.1-.1,3.33,3.33,0,0,0-.58-.55,2,2,0,0,0-.42-.36,1.88,1.88,0,0,0-1.17-.91l-.12-.08a2.73,2.73,0,0,0-1.51-.75,2.31,2.31,0,0,0-1.57-.82,1.7,1.7,0,0,0-.41-.18,1.66,1.66,0,0,0-.33-.15,2.42,2.42,0,0,0-2.33-1.81l-.16,0a2.36,2.36,0,0,0-1.33-.6,1.69,1.69,0,0,0-.58-.26,2.49,2.49,0,0,0-1.37-.84,2.37,2.37,0,0,0-1.94-.77l-.38,0-.19-.09a2.25,2.25,0,0,0-.67-.3,2.34,2.34,0,0,0-1.89-.94,4.41,4.41,0,0,0-.86.19,2.51,2.51,0,0,0-.93-.36,1.37,1.37,0,0,0-.53-.21,2.29,2.29,0,0,0-.74-.51,2.33,2.33,0,0,0-.56-.36,2.43,2.43,0,0,0-1.6-.79,2.48,2.48,0,0,0-1.37-.41h-.13a1.69,1.69,0,0,0-.33,0,2.21,2.21,0,0,0-1.29-.39l-.41.07a2.85,2.85,0,0,0-.42,0h-.08l-.3,0a2.38,2.38,0,0,0-1.86-.89,13.51,13.51,0,0,0-1.93.07c-.05,0,0,0,0,0a24.61,24.61,0,0,0,.1-3.19c-2.23-2,3.37-7.37-3.37-8.66-3-.66-5.51.64-8,.48-4,1.63-.74,7.16-2.74,9a5.48,5.48,0,0,1,.65,2.14,2.08,2.08,0,0,0-.85.2,2.24,2.24,0,0,0-1.05-.26.79.79,0,0,0-.23,0,2.57,2.57,0,0,0-.81-.1,2.49,2.49,0,0,0-.91.23l-.11,0a2.73,2.73,0,0,0-.81,0H338a1.71,1.71,0,0,0-.45,0,2.35,2.35,0,0,0-1.47.52,1.73,1.73,0,0,0-.6-.07,2.39,2.39,0,0,0-2.4.76,2.31,2.31,0,0,0-1.31.52,1.84,1.84,0,0,0-.54.32,2.07,2.07,0,0,0-.5-.05,4,4,0,0,1-1.28.07,2.68,2.68,0,0,0-1.18.44,2.26,2.26,0,0,0-.58,0,2.38,2.38,0,0,0-1.45.66,2.05,2.05,0,0,0-.41.16h-.06a2.45,2.45,0,0,0-1.51.65,2.77,2.77,0,0,0-.87-.1,2.42,2.42,0,0,0-1.85,1.11,2.73,2.73,0,0,0-1.21.66.31.31,0,0,0-.15,0,2.4,2.4,0,0,0-1.16.45,3.21,3.21,0,0,0-.64.46,1.72,1.72,0,0,0-.32,0,2.51,2.51,0,0,0-2.1,1.19l-.2.05h-.24a2.44,2.44,0,0,0-1.78.79,2.28,2.28,0,0,0-1.47,1.26,3.32,3.32,0,0,0-.12.32,2.28,2.28,0,0,0-1.52,1,2.84,2.84,0,0,0-.49.15,2.48,2.48,0,0,0-1.17.63c0,.06-.09.1-.13.17a2.35,2.35,0,0,0-1.31,1.11,2.28,2.28,0,0,0-1.17,1.3c-.08.31-.12.52-.15.67h0l-.41.14h-.3a2.41,2.41,0,0,0-2.09,1.2,4,4,0,0,0-.18.42,2.42,2.42,0,0,0-.85,1.1c-.09.4-.13.63-.16.76a3.46,3.46,0,0,0-.43.56h0a2.6,2.6,0,0,0-1.92.92,2.08,2.08,0,0,0-.73,1,1.62,1.62,0,0,0-.09.3,2.56,2.56,0,0,0-.57.66c-1.32.58-1,1.36-1.18,1.41a.12.12,0,0,0,0,.1,2.36,2.36,0,0,0-1,1.05,6,6,0,0,0-.19.58,1.83,1.83,0,0,0-.88.9c-1,.42-1.06.94-1.11,1.2a1.09,1.09,0,0,0-.05.17h0c0,.11,0,.22-.06.31s0,0,0,0a1,1,0,0,0,0,.23,1.58,1.58,0,0,0-1.06,1.29,2.5,2.5,0,0,0-1.06,1c-.28.69-.28.83-.27.93-.49.42-.47.85-.57.9a2.67,2.67,0,0,0-.18,1.17c0,.21,0,.44,0,.71a1.77,1.77,0,0,0-.27.54,2.09,2.09,0,0,0-1.31,1.36.23.23,0,0,0,0,.11,2.29,2.29,0,0,0-.39.53,3.54,3.54,0,0,0-.28.82c-.16.2-.22.35-.29.42s-.1.29-.14.41a3.05,3.05,0,0,0-.53.71c-.07.18-.11.31-.16.41s-.16.31-.2.36a2.24,2.24,0,0,0-.25,1l0,.05a2.39,2.39,0,0,0-.34,1.25,5.08,5.08,0,0,0-.05.72,3.42,3.42,0,0,0-.23.34c-.46,1-.25.8-.33,1s0,.6,0,1c-.09.17-.12.3-.17.33a2.66,2.66,0,0,0-.21.93c-.06.16-.06.28-.11.29a3.48,3.48,0,0,0-.15.69.92.92,0,0,0-.17.28,3.27,3.27,0,0,0-.35,1.36c0,.2,0,.4,0,.63s-.07.35-.15.38a4,4,0,0,0-.17,1c-.05.1-.07.17-.11.18-.32,1.12-.16.9-.19,1.22a1.14,1.14,0,0,1-.13.22,2.38,2.38,0,0,0-.25,1.16c-.06.64-.07,1.62-.07,3,0,5.46.22,16.42.22,21.94,0,1,0,1.84,0,2.38,0,.17,0,.33,0,.43a2.55,2.55,0,0,0,0,.55,2.5,2.5,0,0,0,.24,1.1c0,.08,0,.17,0,.25,0,.41,0,.75.05,1s0,.26.06.45,0,.19.09.44c.11,0,.11.16.18.38v.54c0,.15,0,.27,0,.42a1.32,1.32,0,0,1,0,.32,2.74,2.74,0,0,0,.15.47c.17.12.17,1.18,2.22,1.47,2.51-.52,2.07-1.64,2.31-1.67a8.93,8.93,0,0,0,.18-2.11c0-.24,0-.51,0-.79.65-.49.51-1,.65-1a5.39,5.39,0,0,0,.19-1.58.09.09,0,0,1,0-.08,6.75,6.75,0,0,0,.25-2.06c0-.69,0-1.62,0-2.7l0,0c.38-.92.21-.75.27-1s0-.88.06-1.58a.11.11,0,0,1,.05-.08A3.12,3.12,0,0,0,291,91c.05-.71.05-1.88.05-3.48V85.81a2.81,2.81,0,0,0,.32-1.19c0-.64.05-1.56.05-2.85v-.84a.42.42,0,0,1,.06-.12,3.49,3.49,0,0,0,.24-1V77.53h0a3.26,3.26,0,0,0,.15-1.18v-.18a3.85,3.85,0,0,0,.18-.89c0-.51,0-1.23,0-2.2a.18.18,0,0,1,.08-.09c.44-1,.23-.86.3-1.12,0-.45,0-1,.06-1.69V70a2,2,0,0,0,.16-.86,5.47,5.47,0,0,0,0-.6,3.76,3.76,0,0,0,.4-.7,2.73,2.73,0,0,0,.19-1.12V65.6l.16-.24a4.81,4.81,0,0,0,.25-.76c.2-.26.29-.49.35-.56.25-.68.22-.75.22-.81h0c.19-.83.16-.81.14-.89a.36.36,0,0,0,0-.09,3.62,3.62,0,0,0,.33-.54.75.75,0,0,0,.09-.25,2.17,2.17,0,0,0,.35-.5,2.39,2.39,0,0,0,.29-.94c0-.35,0-.52,0-.87.07-.06.12-.12.19-.17a3.58,3.58,0,0,0,.39-.52,2.15,2.15,0,0,1,.17-.34c.73-.52.56-1.08.72-1.09a2.45,2.45,0,0,0,.11-.9v0a3,3,0,0,0,.22-.35c.09-.19.13-.35.19-.46a2.45,2.45,0,0,0,.83-1c.25-.66.23-.76.23-.84a2.21,2.21,0,0,0,.81-.92c.36-.93.19-.72.24-.89v-.07a0,0,0,0,0,0,0,2.24,2.24,0,0,0,.73-.8,2.9,2.9,0,0,0,.3-.78,2.2,2.2,0,0,0,.74-1,3.6,3.6,0,0,0,.13-.58c.31-.4.22-.71.33-.73s0,0,0-.05a1.84,1.84,0,0,0,.54-.55,2.28,2.28,0,0,0,1.5-1.14c.44-1,.25-.85.31-1a1.7,1.7,0,0,0,0-.21s.07,0,.08-.1a3.73,3.73,0,0,0,.85-.34,2.21,2.21,0,0,0,1.12-1.08,3.51,3.51,0,0,0,.25-.78,1.85,1.85,0,0,0,.92-.71,1.63,1.63,0,0,0,.73-.7,1.89,1.89,0,0,0,1-1,2.42,2.42,0,0,0,.75-1.27,2.77,2.77,0,0,0,.62-.4h.14a2.35,2.35,0,0,0,1.23-.41,2.24,2.24,0,0,0,1.26-1.11,4.73,4.73,0,0,0,.22-.66l.08,0a2.35,2.35,0,0,0,1.69-.92,2.15,2.15,0,0,0,.53-.41,2.44,2.44,0,0,0,1.65-1.86,2.13,2.13,0,0,0,.45-.13,2.59,2.59,0,0,0,.47.05,2.68,2.68,0,0,0,1.82-.8,1.82,1.82,0,0,0,.29-.22h0a2.4,2.4,0,0,0,2.21-1.62,2.42,2.42,0,0,0,1.06-.35h.43a2,2,0,0,0,.61-.12,2.34,2.34,0,0,0,1.71-1,3.16,3.16,0,0,0,1-.34l.24-.08a2.73,2.73,0,0,0,1.77-.92,2.36,2.36,0,0,0,.59-.42h0a3,3,0,0,0,.68.08h.06a2.38,2.38,0,0,0,.85.16c1.36-.22,1.86-.73,2-1.13,0,0,0,0,0,0a2.82,2.82,0,0,0,.52,0,3,3,0,0,0,.53-.06,2.33,2.33,0,0,0,1.25.35,4.13,4.13,0,0,0,1.62-.61H338a.13.13,0,0,1,.1,0,2.52,2.52,0,0,0,.62-.12.12.12,0,0,0,.07,0l.31-.06a2.4,2.4,0,0,0,.92.19,2.34,2.34,0,0,0,.83.15,2.41,2.41,0,0,0,2.06-1.16H343a1.83,1.83,0,0,1-.29,2.05c1.51,2.6-1,5,1.25,7,1,.59,5,1.08,5.49,1.08,2,.15,4.36.1,5.36-.4,1.93-2.06,1.59-5.49.81-8.64h.1a2.53,2.53,0,0,0,1.56.56.47.47,0,0,1,.17,0,3.21,3.21,0,0,0,.62,0,2.53,2.53,0,0,0,.63-.16,2.42,2.42,0,0,0,1.75.76,2.25,2.25,0,0,0,1.26.28,2.3,2.3,0,0,0,1.42.73,2.36,2.36,0,0,0,1.21.33,2.52,2.52,0,0,0,1.23.33,2.57,2.57,0,0,0,.44-.11,2.31,2.31,0,0,0,.87.2,2.38,2.38,0,0,0,1.42.28h0a2.43,2.43,0,0,0,2.16,1.22,2.35,2.35,0,0,0,1.23.55,1.62,1.62,0,0,0,.43.19,2.56,2.56,0,0,0,1.12.83,2.58,2.58,0,0,0,1.2.54l.29.17a2.39,2.39,0,0,0,1.3.47c.08.06.18.09.26.14a2.47,2.47,0,0,0,1.82.82h.28a2.65,2.65,0,0,0,.91.76,2.5,2.5,0,0,0,1,1.15,1.21,1.21,0,0,0,.15.35,2.71,2.71,0,0,0,.69.84,2.39,2.39,0,0,0,.77.78,1.6,1.6,0,0,0,.52.46,2.44,2.44,0,0,0,1.55,1.18,2.4,2.4,0,0,0,1.3,1.08,2.51,2.51,0,0,0,1.1.79,1.12,1.12,0,0,0,.17.21,2.85,2.85,0,0,0,.46.62,2.38,2.38,0,0,0,.81.8c0,.05,0,.09,0,.16s0,.14.07.3a2.36,2.36,0,0,0,2,1.7,2.23,2.23,0,0,0,.68.53,1.2,1.2,0,0,0,.4.56.42.42,0,0,1,.06.08v.18a2.39,2.39,0,0,0,1.36,2,2.15,2.15,0,0,0,.76.68,1.3,1.3,0,0,1,0,.13,2,2,0,0,0,.08.3,2.54,2.54,0,0,0,.1.25.93.93,0,0,0,0,.14v0c0,.06,0,.13,0,.22a2.66,2.66,0,0,0,.07.38,5.67,5.67,0,0,0,.24.58,2.92,2.92,0,0,0,.53.63v.08a2.43,2.43,0,0,0,.73,1.54,1.61,1.61,0,0,0,.5.43,1.5,1.5,0,0,0,.55.67,1.43,1.43,0,0,0,.27.59h0a2.16,2.16,0,0,0,0,.29c0,.06,0,.11,0,.2s0,.12,0,.28.06.19.18.45a3.05,3.05,0,0,0,.44.62,1,1,0,0,1,0,.21,1.54,1.54,0,0,0,.14.4c.14,0,0,.55.74,1a1.84,1.84,0,0,0,.17.37,1,1,0,0,0,.1.15c0,.07,0,.14,0,.24a3,3,0,0,0,.16.49c.07,0,.11.3.33.58,0,.07.08.17.14.32a.34.34,0,0,1,.08.14h0c0,.09,0,.16.05.33a3.67,3.67,0,0,0,.14.43c.08,0,.1.24.24.46,0,.39,0,.72.05,1s0,.3.05.45a1.41,1.41,0,0,1,0,.31,2.47,2.47,0,0,0,.14.44c.1,0,.1.37.45.72a3.43,3.43,0,0,0,0,.48,3,3,0,0,0,0,.43c0,.06,0,.14.06.31a2,2,0,0,0,.15.45c.1,0,.12.48.61.87l0,0a.29.29,0,0,0,.05.16c0,.55,0,1,0,1.32,0,.18,0,.34,0,.47s0,.13,0,.23a1,1,0,0,0,0,.29c0,.08.06.19.15.46,0,0,.07.07.11.15a.45.45,0,0,1,0,.11c0,.5,0,.94,0,1.31v1c0,.14,0,.26,0,.41a1.44,1.44,0,0,0,.08.39,1.81,1.81,0,0,0,.18.52c0,.29,0,.56,0,.79s0,.42,0,.61,0,.16,0,.3,0,.14.07.35a2.86,2.86,0,0,0,.21.53,2.53,2.53,0,0,1,.15.22c0,.57,0,1,0,1.45,0,.25,0,.47,0,.66s0,.17,0,.31a2.77,2.77,0,0,0,.26.87,1.66,1.66,0,0,1,.17.26c0,.1,0,.18,0,.25a2.15,2.15,0,0,0,0,.36,2.67,2.67,0,0,0,.1.42c.18,0,0,.58.77,1.09a2.14,2.14,0,0,0,1.48,1c.18.39.62.93,2.08,1.21,2.29-.39,2.11-1.52,2.29-1.59a4,4,0,0,0,.17-.87,3.57,3.57,0,0,0,.12-1v0a2.35,2.35,0,0,0,.33-1.1c0-.39,0-.76,0-1.33C410.39,76.9,410.29,73,410.29,71.13Z"/><path class="cls-1" d="M404.25,29c1.66.13,2.77-.12,4.35.07a48.47,48.47,0,0,0,5,0,29.82,29.82,0,0,1,4.83.11c2.59.36,5.15-.22,7.54.12,1.3-.24,3,.11,4.11,0a8.64,8.64,0,0,1,1.32.12c.25.05.33.17.58.28s-.2.25-.59.33c-2.24.49-5.24.07-7.75.25a11.74,11.74,0,0,1-2.59.17c-1.84.24-3.86-.07-5.29.18-.94.28-3,0-4.09.13a5.26,5.26,0,0,0-1.61.22c-1.81-.07-2.8-.23-4.27-.19a5.87,5.87,0,0,1-2.27-.1c-.34,0-2,.25-2.22.21a4.47,4.47,0,0,1-1.7-.72c.47-.14.11-.32.27-.43a5.34,5.34,0,0,1,1.26-.37A16.68,16.68,0,0,1,404.25,29Z"/><path class="cls-1" d="M412.41,41.63c.95.1,1.61-.1,2.52,0a21.65,21.65,0,0,0,2.91,0,14.63,14.63,0,0,1,2.81.08c1.51.27,3-.15,4.39.1a19.18,19.18,0,0,1,2.39,0,5.7,5.7,0,0,1,.76.1c.15,0,.2.12.36.22s-.14.17-.36.23c-1.29.38-3.06.06-4.5.2a5.63,5.63,0,0,1-1.52.13c-1.08.16-2.24-.07-3.08.14a14.28,14.28,0,0,1-2.39.08c-.46,0-.46.07-.93.16-1,0-1.63-.16-2.49-.13a2.46,2.46,0,0,1-1.3-.08c-.2,0-1.15.2-1.3.15a2.17,2.17,0,0,1-1-.53c.27-.09.06-.24.15-.31a2.84,2.84,0,0,1,.74-.3A8.67,8.67,0,0,1,412.41,41.63Z"/><path class="cls-1" d="M269.07,79.66c-2.42-.12-4.05.12-6.37,0-2.15,0-4.81-.19-7.33,0a69.89,69.89,0,0,1-7.1-.09c-3.79-.34-7.54.21-11-.13-1.91.23-4.36-.09-6,0a17.26,17.26,0,0,1-1.93-.13,5.49,5.49,0,0,1-.88-.27c-.14-.1.3-.2.91-.3,3.27-.47,7.67-.05,11.34-.25a28.66,28.66,0,0,1,3.81-.15c2.73-.21,5.67.07,7.78-.17,1.39-.28,4.35,0,6-.12a15.55,15.55,0,0,0,2.36-.2c2.64,0,4.1.2,6.27.17a13.49,13.49,0,0,1,3.32.09c.49,0,2.89-.23,3.26-.21a9,9,0,0,1,2.52.69c-.71.14-.19.3-.41.4a10.51,10.51,0,0,1-1.87.39A42,42,0,0,1,269.07,79.66Z"/><path class="cls-1" d="M265.54,66.59c-3.07-.14-5.14.13-8.07-.07-2.72,0-6.09-.21-9.26,0-3.63,0-5.43.16-9-.12-4.78-.39-9.53.24-14-.14-2.41.27-5.51-.09-7.62,0-1.2,0-1.82-.08-2.45-.15a7.21,7.21,0,0,1-1.1-.31c-.18-.14.39-.25,1.11-.35,4.17-.55,9.73-.08,14.36-.29A35.62,35.62,0,0,1,234.4,65c3.42-.26,7.15.07,9.8-.21,1.77-.31,5.52,0,7.61-.13a22.73,22.73,0,0,0,3-.23c3.35,0,5.21.23,7.94.19a19.14,19.14,0,0,1,4.19.11c.64,0,3.66-.27,4.12-.23a10.86,10.86,0,0,1,3.18.79c-.87.14-.22.33-.51.45a15.49,15.49,0,0,1-2.35.42A57.74,57.74,0,0,1,265.54,66.59Z"/><path class="cls-1" d="M422.07,53.84c1.28.09,2.14-.09,3.33.06a37.78,37.78,0,0,0,3.84,0,22.82,22.82,0,0,1,3.7.09c2,.26,3.95-.18,5.79.08,1-.17,2.27.07,3.14,0a7.1,7.1,0,0,1,1,.11c.2,0,.27.13.47.23s-.16.16-.47.21c-1.72.4-4,.06-5.94.21a10.38,10.38,0,0,1-2,.12c-1.42.18-2.94,0-4.06.14a22.83,22.83,0,0,1-3.14.08,5.07,5.07,0,0,0-1.22.18c-1.39,0-2.15-.19-3.28-.15a4.75,4.75,0,0,1-1.73-.07c-.27,0-1.52.18-1.71.15a3.19,3.19,0,0,1-1.31-.53c.35-.11.07-.24.21-.31a3.14,3.14,0,0,1,1-.29A14.86,14.86,0,0,1,422.07,53.84Z"/><path class="cls-1" d="M449.17,53.5c.27.1.45-.07.69.06a1.88,1.88,0,0,0,.82,0c.3,0,.47-.12.77.07s.83-.16,1.2.09c.21-.17.49.08.69,0s.16,0,.2.1,0,.14.09.21,0,.16-.09.22c-.37.37-.84.07-1.26.21a.48.48,0,0,1-.41.12c-.3.15-.63,0-.86.12s-.47,0-.66.1-.13.08-.25.16c-.3,0-.45-.16-.69-.14s-.2,0-.36-.07-.32.19-.36.15a1.43,1.43,0,0,1-.28-.51c.09-.12,0-.24,0-.32a1.26,1.26,0,0,1,.2-.29A1,1,0,0,1,449.17,53.5Z"/><path class="cls-1" d="M458.47,53.67c.15.08.24-.07.39,0s.27.1.42,0,.24-.09.41.06.43-.13.63.07c.1-.13.25,0,.34,0a.19.19,0,0,1,.12.07s0,.12,0,.16a.23.23,0,0,1,0,.18c-.2.29-.44,0-.65.16s-.14.12-.23.08c-.15.13-.33,0-.44.1s-.26,0-.35.07-.06.07-.15.11-.22-.11-.34-.09-.11,0-.2,0-.16.14-.18.1a1.07,1.07,0,0,1-.16-.39c.05-.09,0-.18,0-.23a.76.76,0,0,1,.11-.22C458.29,53.78,458.38,53.68,458.47,53.67Z"/><path class="cls-1" d="M388,16.89c.51.11.87-.09,1.37.05a6.86,6.86,0,0,0,1.57,0,4.57,4.57,0,0,1,1.52.08c.81.27,1.6-.16,2.37.11.39-.19.91.07,1.29,0a1.19,1.19,0,0,1,.4.09.62.62,0,0,1,.19.23c0,.1-.06.17-.19.24-.71.36-1.65,0-2.44.19a1.65,1.65,0,0,1-.8.12c-.57.16-1.21-.05-1.69.14-.29.2-.9,0-1.27.09s-.24.08-.5.16a10.19,10.19,0,0,0-1.34-.14c-.41.12-.41,0-.72-.07-.09,0-.61.19-.69.14a1.15,1.15,0,0,1-.55-.51c.17-.12.05-.25.09-.33a1.72,1.72,0,0,1,.4-.29A2.87,2.87,0,0,1,388,16.89Z"/><path class="cls-1" d="M400.5,17.15c.14.09.22-.1.36.05s.28.13.42,0,.25-.09.39.08.44-.15.62.1c.12-.18.26.07.35,0a1.31,1.31,0,0,1,.12.11,1.18,1.18,0,0,1,0,.21.43.43,0,0,1,0,.23c-.21.38-.43.06-.65.21s-.13.16-.22.12c-.15.17-.32-.05-.43.13s-.26,0-.35.1-.07.08-.15.17-.22-.17-.36-.16-.08,0-.17-.07-.16.19-.18.15a1.09,1.09,0,0,1-.14-.52,1.07,1.07,0,0,0,0-.31,2,2,0,0,1,.12-.29C400.31,17.29,400.38,17.18,400.5,17.15Z"/><path class="cls-1" d="M278.69,51.35c-.95-.13-1.59.12-2.52-.06a17.85,17.85,0,0,0-2.93,0,10.62,10.62,0,0,1-2.82-.1c-1.51-.32-3,.22-4.4-.12-.74.23-1.71-.1-2.4,0a3.09,3.09,0,0,1-.76-.12,1.47,1.47,0,0,1-.36-.28c-.05-.09.13-.19.38-.28,1.31-.47,3-.06,4.5-.25a4.87,4.87,0,0,1,1.51-.16c1.09-.2,2.26.07,3.1-.16.56-.26,1.72,0,2.4-.12.46,0,.45-.09.92-.2,1.06.06,1.66.21,2.52.18a2,2,0,0,1,1.3.1c.2,0,1.15-.25,1.29-.21a2.2,2.2,0,0,1,1,.68c-.28.13-.07.28-.19.37a1.69,1.69,0,0,1-.72.38A7.43,7.43,0,0,1,278.69,51.35Z"/><path class="cls-1" d="M257.62,51.7c-.32-.1-.56.1-.89-.05a2.43,2.43,0,0,0-1,0c-.4,0-.59.1-1-.08-.54-.26-1,.17-1.56-.09-.25.17-.57-.07-.81,0l-.27-.08a.76.76,0,0,1-.11-.24c0-.09,0-.16.11-.24.46-.35,1.07,0,1.57-.19a.89.89,0,0,1,.53-.13c.38-.16.79.07,1.07-.12s.6,0,.83-.09.16-.08.33-.17a4.15,4.15,0,0,0,.86.14c.26-.11.26,0,.45.06s.4-.18.45-.14a1.08,1.08,0,0,1,.36.54c-.1.09,0,.22-.06.31a1,1,0,0,1-.25.29A1.37,1.37,0,0,1,257.62,51.7Z"/><path class="cls-1" d="M240.92,51.57c-.66-.08-1,.06-1.64,0a13,13,0,0,0-1.87,0,8.25,8.25,0,0,1-1.79-.05c-1-.2-1.93.11-2.81-.07-.52.12-1.11-.07-1.53,0a1.64,1.64,0,0,1-.53-.08c-.08,0-.09-.1-.22-.16s.09-.12.22-.17a14.73,14.73,0,0,1,2.93-.16,3.27,3.27,0,0,1,.95-.08c.69-.15,1.45,0,2-.12a7.68,7.68,0,0,1,1.53-.05c.32,0,.32-.07.58-.12.71,0,1.06.12,1.63.09a1.61,1.61,0,0,1,.83.05c.14,0,.73-.14.84-.11a1.53,1.53,0,0,1,.62.4c-.16.07,0,.18-.09.25a3.15,3.15,0,0,1-.45.22A6.67,6.67,0,0,1,240.92,51.57Z"/><path class="cls-1" d="M283.72,36.52c-1.58-.11-2.65.11-4.16-.05a44.32,44.32,0,0,0-4.77,0,28.55,28.55,0,0,1-4.63-.1c-2.47-.3-4.91.21-7.21-.11-1.23.22-2.83-.08-3.92,0a11.69,11.69,0,0,1-1.27-.12c-.22-.06-.3-.15-.56-.25-.09-.12.2-.21.59-.27,2.13-.48,5-.07,7.4-.25a12.2,12.2,0,0,1,2.48-.15c1.77-.19,3.68.06,5.05-.15a29.3,29.3,0,0,1,3.91-.11,5.69,5.69,0,0,0,1.55-.21c1.72.07,2.7.22,4.11.18a6.93,6.93,0,0,1,2.14.08c.33,0,1.89-.21,2.14-.18a4.43,4.43,0,0,1,1.64.64c-.46.13-.12.28-.26.36a5.83,5.83,0,0,1-1.22.36A19.86,19.86,0,0,1,283.72,36.52Z"/><path class="cls-1" d="M374.57,5.71c.51.11.89-.07,1.38.07a6.33,6.33,0,0,0,1.57,0,4.41,4.41,0,0,1,1.53.08c.81.28,1.59-.17,2.34.11.41-.19.95.06,1.3,0a1,1,0,0,1,.41.11c.07,0,.11.13.19.21s-.07.17-.2.23c-.7.39-1.64.06-2.42.21a1.94,1.94,0,0,1-.81.11c-.6.17-1.21,0-1.67.14-.3.2-.94,0-1.28.1s-.25.07-.51.16a7.84,7.84,0,0,0-1.35-.14c-.41.1-.39,0-.71-.08-.11,0-.62.19-.7.15a1.35,1.35,0,0,1-.54-.52c.16-.11,0-.24.08-.33A1.35,1.35,0,0,1,373.6,6,2.77,2.77,0,0,1,374.57,5.71Z"/><path class="cls-1" d="M200.32,78.59c1.34.08,2.21-.06,3.46,0s2.61.08,4,0a30,30,0,0,1,3.8.06c2.05.19,4-.14,5.92.07,1.06-.14,2.38,0,3.26,0a9.32,9.32,0,0,1,1,.07,2.5,2.5,0,0,1,.48.18c.08,0-.16.11-.48.17-1.76.28-4.15,0-6.11.14a13.14,13.14,0,0,1-2,.08c-1.45.14-3,0-4.15.11-.76.15-2.35,0-3.23.07a6.16,6.16,0,0,0-1.3.13c-1.41,0-2.2-.13-3.37-.11a6.17,6.17,0,0,1-1.77-.06c-.28,0-1.56.15-1.76.11a3.82,3.82,0,0,1-1.36-.4c.36-.06.11-.18.23-.23a5.35,5.35,0,0,1,1-.2A20.27,20.27,0,0,1,200.32,78.59Z"/><path class="cls-1" d="M271.85,93.58c-1-.09-1.61.09-2.52,0a17.72,17.72,0,0,0-2.93,0,14.7,14.7,0,0,1-2.82-.06c-1.51-.27-3,.15-4.4-.11a19.19,19.19,0,0,1-2.39,0,3.52,3.52,0,0,1-.78-.1,3.59,3.59,0,0,1-.35-.21c0-.1.12-.18.35-.24,1.31-.39,3.06,0,4.52-.21a6.16,6.16,0,0,1,1.53-.11c1.07-.18,2.25.05,3.09-.13a12.22,12.22,0,0,1,2.38-.09,3.38,3.38,0,0,0,.94-.17c1,0,1.63.17,2.5.14a2.33,2.33,0,0,1,1.31.07c.21,0,1.16-.19,1.31-.15a2.13,2.13,0,0,1,1,.53c-.27.11-.07.23-.15.31a3,3,0,0,1-.75.3A8.51,8.51,0,0,1,271.85,93.58Z"/><path class="cls-1" d="M268.52,105.36c-1.53-.08-2.56.09-4,0s-3.05-.15-4.64,0a37.15,37.15,0,0,1-4.48-.07c-2.4-.26-4.75.14-7-.1-1.19.18-2.76-.06-3.82,0a9.2,9.2,0,0,1-1.22-.1,2.92,2.92,0,0,1-.55-.21c-.09-.08.19-.16.55-.21,2.09-.37,4.87,0,7.2-.2a15.32,15.32,0,0,1,2.41-.1c1.71-.18,3.57,0,4.91-.13a35.87,35.87,0,0,1,3.79-.09,10.89,10.89,0,0,0,1.5-.15c1.67,0,2.61.15,4,.12a7.08,7.08,0,0,1,2.11.07c.3,0,1.82-.18,2.07-.14a4.27,4.27,0,0,1,1.57.51c-.43.09-.11.21-.24.28a7.47,7.47,0,0,1-1.19.3A23.61,23.61,0,0,1,268.52,105.36Z"/><path class="cls-1" d="M426.94,68.15c1.69.07,2.83-.09,4.43,0s3.34.12,5.08,0a42.41,42.41,0,0,1,4.92.08c2.63.21,5.24-.14,7.66.07,1.31-.16,3,.08,4.2,0a11.52,11.52,0,0,1,1.34.09c.25,0,.34.12.6.18.11.09-.21.15-.61.21-2.28.33-5.34,0-7.9.17a19.92,19.92,0,0,1-2.65.1c-1.86.16-3.9,0-5.36.11a40.53,40.53,0,0,1-4.17.08,11.11,11.11,0,0,0-1.64.16c-1.83,0-2.86-.16-4.36-.13a9.85,9.85,0,0,1-2.3-.06c-.35,0-2,.17-2.26.13a6,6,0,0,1-1.75-.45c.48-.1.12-.21.28-.29a7.9,7.9,0,0,1,1.28-.24A27.3,27.3,0,0,1,426.94,68.15Z"/><path class="cls-1" d="M425.22,81.23c.52.1.86-.09,1.37,0a6,6,0,0,0,1.58,0,4,4,0,0,1,1.51.09c.81.25,1.6-.17,2.36.11.4-.2.93.06,1.29,0a1.41,1.41,0,0,1,.43.11c.06,0,.09.12.18.21s-.07.16-.18.23c-.72.38-1.68,0-2.45.2a1.88,1.88,0,0,1-.82.12c-.57.16-1.21,0-1.67.13-.29.21-.91,0-1.27.11s-.27.08-.51.16a7,7,0,0,0-1.35-.15c-.41.1-.39,0-.7-.07-.12,0-.61.2-.7.15a1.31,1.31,0,0,1-.54-.53c.14-.1,0-.23.09-.31a1.35,1.35,0,0,1,.39-.3A2.62,2.62,0,0,1,425.22,81.23Z"/><path class="cls-1" d="M440.35,81.7c.3.07.49,0,.79,0a2.9,2.9,0,0,0,.93,0,2.29,2.29,0,0,1,.87.05c.5.17,1-.11,1.41,0,.24-.1.53,0,.75,0l.24.06c.06,0,.06.08.1.15s0,.1-.1.13c-.43.21-1,0-1.43.11a.92.92,0,0,1-.47.08c-.34.11-.73,0-1,.08s-.55,0-.75.06-.14.06-.3.09c-.35,0-.52-.09-.79-.09s-.23,0-.42,0-.35.12-.41.1a1.06,1.06,0,0,1-.33-.34c.1,0,0-.13.07-.18a.78.78,0,0,1,.24-.17A1.58,1.58,0,0,1,440.35,81.7Z"/><path class="cls-1" d="M249.51,93.24c-.27-.1-.46.09-.71-.06s-.55-.12-.81,0-.49.11-.8-.08-.83.16-1.24-.1c-.2.18-.48-.06-.67,0a.64.64,0,0,1-.22-.11.5.5,0,0,1-.1-.22.3.3,0,0,1,.1-.23c.39-.36.87,0,1.27-.2a.54.54,0,0,1,.43-.11c.3-.17.64.06.86-.14s.48,0,.68-.08.13-.08.26-.17a2.17,2.17,0,0,0,.7.14c.21-.08.21,0,.38.07s.32-.17.36-.14a1.4,1.4,0,0,1,.29.52c-.09.11,0,.23-.06.31A.68.68,0,0,1,250,93,.8.8,0,0,1,249.51,93.24Z"/><path class="cls-1" d="M299.74,25.63c-1.27-.08-2.13.07-3.35-.05s-2.5-.12-3.8,0a24.38,24.38,0,0,1-3.73-.08c-2-.21-3.94.17-5.77-.08-1,.17-2.28-.06-3.14,0a5.39,5.39,0,0,1-1-.09,1.5,1.5,0,0,1-.46-.17c-.08-.09.17-.16.47-.23,1.72-.32,4,0,5.95-.17a13.35,13.35,0,0,1,2-.1c1.41-.15,2.94,0,4.06-.11a24.53,24.53,0,0,1,3.14-.08,6.66,6.66,0,0,0,1.24-.15c1.37,0,2.13.15,3.28.13a5.11,5.11,0,0,1,1.73.06c.26,0,1.5-.17,1.7-.14a3.59,3.59,0,0,1,1.31.47c-.35.09-.09.2-.22.28a6.84,6.84,0,0,1-.95.24A17.09,17.09,0,0,1,299.74,25.63Z"/><path class="cls-1" d="M268.87,20.25c-.42-.09-.69.06-1.11,0a4.37,4.37,0,0,0-1.26,0,3.37,3.37,0,0,1-1.22-.06c-.64-.24-1.28.14-1.88-.1-.33.18-.76-.05-1,0A1,1,0,0,1,262,20s-.07-.11-.14-.2.07-.14.16-.2c.55-.32,1.32,0,1.94-.19a1.79,1.79,0,0,1,.66-.09c.47-.15,1,.05,1.35-.11.22-.18.73,0,1-.1s.19-.06.4-.13a5.31,5.31,0,0,0,1.07.12c.34-.09.34,0,.56.07s.51-.18.57-.13a1,1,0,0,1,.44.46c-.11.09,0,.2-.08.27a.75.75,0,0,1-.32.25A1.8,1.8,0,0,1,268.87,20.25Z"/><path class="cls-1" d="M310.1,10.61c.52.09.86-.09,1.37,0a5.87,5.87,0,0,0,1.57,0,4.13,4.13,0,0,1,1.52.08c.81.27,1.63-.16,2.36.1.4-.18.93.07,1.29,0a1.47,1.47,0,0,1,.42.11c.08,0,.12.12.18.22s-.05.15-.18.23c-.72.37-1.65,0-2.44.19a1.69,1.69,0,0,1-.82.13c-.58.16-1.21,0-1.66.12s-.92,0-1.28.11-.25.07-.5.15a12.75,12.75,0,0,0-1.34-.13c-.43.1-.4,0-.72-.08-.1,0-.61.2-.7.15a1.27,1.27,0,0,1-.56-.54c.17-.09.05-.22.1-.31a1.47,1.47,0,0,1,.41-.28A2.46,2.46,0,0,1,310.1,10.61Z"/><path class="cls-1" d="M301.11,11.35c-.38.07-.63,0-1,0a5.05,5.05,0,0,1-1.17,0,3.31,3.31,0,0,0-1.13,0c-.62.19-1.21-.1-1.77.08-.3-.14-.7.05-1,0a1.29,1.29,0,0,0-.32.06c-.05,0-.05.09-.13.15s.05.12.13.16c.52.26,1.23,0,1.82.14a1.7,1.7,0,0,0,.61.09c.44.12.91,0,1.24.07s.7,0,1,.08.16.05.38.11a6.37,6.37,0,0,1,1-.1.72.72,0,0,0,.53,0c.09,0,.49.13.53.09a.77.77,0,0,0,.39-.36c-.1-.08,0-.16,0-.22a1,1,0,0,0-.31-.19A1.75,1.75,0,0,0,301.11,11.35Z"/><path class="cls-1" d="M310.4,50.83c.33.1.56-.08.88.05a2.32,2.32,0,0,0,1,0c.39,0,.58-.11,1,.08s1.05-.18,1.53.09c.27-.17.61.08.83,0a.66.66,0,0,1,.28.1c.05,0,.07.14.11.22s0,.16-.11.23c-.46.37-1.07.06-1.57.19a.65.65,0,0,1-.52.11c-.39.19-.8,0-1.08.14s-.6,0-.83.1-.17.09-.33.17a3.73,3.73,0,0,0-.86-.14c-.27.1-.27,0-.46-.07s-.39.19-.45.14a1.43,1.43,0,0,1-.36-.53c.12-.09,0-.23.09-.31a.55.55,0,0,1,.24-.29A1.47,1.47,0,0,1,310.4,50.83Z"/><path class="cls-1" d="M300.46,92.06c.27.08.46-.1.7,0s.56.14.82,0,.49-.11.79.07.85-.17,1.24.09c.23-.18.49.08.69,0a.37.37,0,0,1,.2.1.5.5,0,0,1,.1.22c0,.08,0,.15-.1.22-.37.37-.86,0-1.26.21a.59.59,0,0,1-.44.11c-.3.17-.62,0-.86.13s-.47,0-.66.09-.14.08-.27.16a2.75,2.75,0,0,0-.7-.13c-.22.09-.22,0-.38-.07s-.32.18-.37.14a1.36,1.36,0,0,1-.27-.52c.08-.12,0-.24.05-.3a.87.87,0,0,1,.2-.3A.91.91,0,0,1,300.46,92.06Z"/><path class="cls-1" d="M306.44,63.54c1,.1,1.62-.1,2.54.05a21.48,21.48,0,0,0,2.9,0,14,14,0,0,1,2.82.07c1.5.28,3-.15,4.38.12a21.38,21.38,0,0,1,2.38,0,5.28,5.28,0,0,1,.78.11,1.31,1.31,0,0,1,.34.22c.06.08-.12.15-.35.24-1.31.37-3.05,0-4.5.18a5.25,5.25,0,0,1-1.51.13c-1.09.17-2.26,0-3.09.13a14.07,14.07,0,0,1-2.38.1,2.51,2.51,0,0,0-.94.16c-1,0-1.63-.16-2.47-.13a2.9,2.9,0,0,1-1.32-.08c-.21,0-1.13.19-1.31.14a2,2,0,0,1-1-.53c.26-.08.06-.23.15-.3a3,3,0,0,1,.74-.3A8.72,8.72,0,0,1,306.44,63.54Z"/><path class="cls-1" d="M302.62,77.88c.87.1,1.46-.09,2.27.05a16.23,16.23,0,0,0,2.62,0A11.26,11.26,0,0,1,310,78c1.34.26,2.67-.16,3.92.1a17.28,17.28,0,0,1,2.15,0,2.46,2.46,0,0,1,.69.11c.14,0,.18.13.32.21s-.11.16-.32.24c-1.18.38-2.75,0-4.05.19a4.54,4.54,0,0,1-1.36.12c-.95.16-2,0-2.76.14a11.42,11.42,0,0,1-2.14.09c-.44,0-.42.08-.85.16-.93,0-1.46-.16-2.23-.13a2.2,2.2,0,0,1-1.17-.07c-.18,0-1,.18-1.16.15a1.86,1.86,0,0,1-.89-.54c.23-.1.05-.24.12-.31a2.4,2.4,0,0,1,.67-.3A6.56,6.56,0,0,1,302.62,77.88Z"/><path class="cls-1" d="M311.62,91.51c.15.11.26-.07.41.07s.31.13.49,0,.28-.1.45.08.49-.16.72.1c.13-.18.28.07.41,0s.07.06.11.1a.66.66,0,0,1,.06.22.36.36,0,0,1-.06.23c-.21.37-.52,0-.73.2s-.15.16-.26.1c-.18.17-.37,0-.5.15s-.28,0-.4.07-.07.1-.15.18-.26-.18-.41-.14-.12,0-.22-.07-.18.18-.19.14a1.53,1.53,0,0,1-.18-.52c0-.11,0-.24,0-.3a.81.81,0,0,1,.12-.29A.67.67,0,0,1,311.62,91.51Z"/><path class="cls-1" d="M391,67.22c-.48-.1-.8.09-1.28-.06a5.51,5.51,0,0,0-1.47,0,3.46,3.46,0,0,1-1.36-.07c-.77-.26-1.51.17-2.23-.1-.37.17-.84-.06-1.18,0a1.85,1.85,0,0,1-.39-.08,1,1,0,0,1-.15-.23c0-.09,0-.16.15-.24.66-.36,1.53,0,2.26-.19a1.51,1.51,0,0,1,.76-.12c.54-.17,1.11,0,1.54-.14.28-.21.85,0,1.21-.09s.22-.07.46-.17a7.47,7.47,0,0,0,1.23.14c.38-.1.37,0,.66.09.09,0,.56-.2.63-.16a1.1,1.1,0,0,1,.52.53c-.15.1,0,.22-.08.32a1.63,1.63,0,0,1-.37.29A2.63,2.63,0,0,1,391,67.22Z"/><path class="cls-1" d="M384.2,56c-.5-.1-.83.08-1.32-.06a4.91,4.91,0,0,0-1.49,0,3.93,3.93,0,0,1-1.41-.07c-.79-.27-1.54.17-2.28-.1-.38.17-.86-.08-1.21,0a.92.92,0,0,1-.39-.1c-.08,0-.11-.14-.17-.22s.06-.17.17-.23c.67-.38,1.57-.06,2.31-.19a1.29,1.29,0,0,1,.78-.12c.55-.18,1.14,0,1.56-.13s.89,0,1.24-.1.24-.09.49-.17a6.64,6.64,0,0,0,1.25.13c.39-.09.39,0,.68.08.1,0,.58-.19.66-.15a1.3,1.3,0,0,1,.53.54c-.17.09-.05.23-.09.3a1.09,1.09,0,0,1-.39.3A2.85,2.85,0,0,1,384.2,56Z"/><path class="cls-1" d="M395.49,82c-.21-.09-.36.09-.57,0s-.42-.14-.64,0-.38.09-.63-.07-.67.16-1-.11c-.18.18-.38-.07-.52,0a.47.47,0,0,1-.18-.1.45.45,0,0,1-.07-.23.32.32,0,0,1,.07-.25c.29-.35.68,0,1-.18.11-.08.2-.17.33-.12.24-.17.5,0,.69-.13s.37,0,.53-.09.1-.08.22-.18c.23.06.35.18.55.14s.16,0,.29.08.25-.2.29-.15a1.63,1.63,0,0,1,.23.54c-.08.09,0,.21,0,.3a1.08,1.08,0,0,1-.18.3A.72.72,0,0,1,395.49,82Z"/><path class="cls-1" d="M378.48,45.35c-.14-.09-.22.09-.34,0s-.27-.14-.41,0-.23.1-.38-.08-.43.16-.62-.1c-.11.18-.24-.08-.34,0s-.08,0-.1-.1a1.46,1.46,0,0,1-.06-.23.51.51,0,0,1,.06-.22c.18-.38.41-.07.62-.21.06-.08.13-.17.21-.11.16-.18.32,0,.44-.14s.23,0,.33-.09.06-.08.13-.17.22.17.34.14.11,0,.18.08.16-.19.18-.15a1.43,1.43,0,0,1,.14.54,1,1,0,0,0,0,.3.73.73,0,0,1-.1.28A.54.54,0,0,1,378.48,45.35Z"/><path class="cls-1" d="M481.34,218.2c-.26,3-1.92,4.19-2.86,5.7-1.51,1.81-2.82,1.39-4.48,2.56-1.13.07-2.53.26-4,.26a4,4,0,0,1-3.39-1.43c-1-.53-2.19-.68-2.41-2.11-1.7-.53-1.21-2.19-2.19-3.05a22.19,22.19,0,0,1-.37-3.47c0-2.41.6-4.79,2.52-6.33.3-1.47,2-1.73,3-2.49,1.25-.64,3.36-.41,4.94-.79,2.42,0,4.07,1.66,6.18,2.42.34,1.31,1.51,1.69,1.93,2.82a4.69,4.69,0,0,1,1.2,2.83C481.72,215.83,480.7,217.68,481.34,218.2Zm-1.73-1.2a11.85,11.85,0,0,0-1.77-5.5c-.49-.87-2.26-1-2.86-2.11a7.85,7.85,0,0,0-7.39.22c-3.88,2.64-4.67,6-3.88,9.65.26,1.17,1.66,2.52,1.88,3.35,1.4.91,2.42,2.12,3.77,2.12,1.13,0,1.47.9,2.9.56,2.19-.49,4.22-1,5.81-3.51A9.55,9.55,0,0,0,479.61,217Zm-11.53,3.92c.15-.27-.15-.49,0-.79a.47.47,0,0,1,.12-.45,6.63,6.63,0,0,1,0-1.51c-.22-.23,0-.53-.11-.76.11-.3,0-.68.11-1a9.62,9.62,0,0,1,0-1c.23-.61-.15-1.1,0-1.44.11-.07.23-.26.11-.34s0-.34-.07-.41c0-.3,0-.56-.34-.64.07-.08,0-.19,0-.26-.49-.16-1.39.18-1.39-.5a.45.45,0,0,1,.45-.45,10.6,10.6,0,0,0,2.45,0c.67-.23,1.24.23,1.88,0a.9.9,0,0,1,1.06.27c.41.14,1,0,1.28.37.15.19.64.11.56.53.45.08.19.6.68.71a.49.49,0,0,0,.11.46,5.4,5.4,0,0,1-.38,1.84c-.37.34-.71.45-.82.87-.19.19-.72.07-.61.53.23.11.12.45.57.6-.11.38.34.38.26.71.42.12.23.61.69.68,0,.12,0,.19,0,.31.3,0,.07.6.68.6-.08.45.3.6.38.75a3.89,3.89,0,0,0,.94.46.62.62,0,0,1,.45.56c0,.23,0,.41-.26.41a2.76,2.76,0,0,1-1.4,0,1.81,1.81,0,0,0-.64,0,.67.67,0,0,1-.9-.49c.19-.45-.49-.23-.46-.72-.49-.07-.22-.45-.49-.68a.71.71,0,0,0-.26-.49c.23-.26-.22-.37-.22-.68-.19-.07-.42-.15-.38-.41-.49,0-.41-.71-.94-.71-.08-.12-.12-.31-.23-.31s-.57,0-.75.19a7.48,7.48,0,0,0-.23,2c.11.26-.11.64.19.79,0,.15-.08.3.15.34s.83.07,1.13.34a.55.55,0,0,1,0,.49c-.34.49-1.06.22-1.55.3h-3a.65.65,0,0,1-.26-.41c.07-.12.15-.38.41-.42a4.07,4.07,0,0,0,1-.23Zm2.15-8.59c0,.6-.08,1.47-.08,2.26,0,.3.15.75-.07,1a3.91,3.91,0,0,0,.07.9c.15.22.34.11.57.19.34-.08.83-.08,1-.42.37-.07.37-.52.68-.71,0-.23.22-.23.37-.42s0-.37-.11-.41c-.07-.42.15-.79.08-.94a.55.55,0,0,1-.19-.49c-.38-.08-.15-.68-.6-.57-.49-.49-1.21-.3-1.63-.45Z"/></svg>